<?xml version="1.0" standalone="no"?>
<!DOCTYPE svg PUBLIC "-//W3C//DTD SVG 1.1//EN" 
  "http://www.w3.org/Graphics/SVG/1.1/DTD/svg11.dtd">
<svg xmlns="http://www.w3.org/2000/svg"
     version="1.1" width="450" height="75"><defs id="SvgjsDefs1132"></defs><g id="main_text" rel="mainfill" name="main_text" feature="main_text" xmlns:name="mainText_mainfill" groupname="main_text" fill="#ffffff" transform="translate(0, 0) scale(2.4630565013814447)"><path d="M6.64 18.68 l-1.32 2.64 l-1.36 2.68 l-2.96 0 l8 -16 l5.34 10.68 l-3 0 l-2.34 -4.7 l-2.36 4.7 l0 0 z M15.66 21.34 l1.34 2.66 l-2.98 0 l-1.32 -2.66 l0 0 l2.96 0 z M28.200000000000003 20.86 c0.68 -0.32 1.28 -0.76 1.8 -1.34 l2.66 0.88 c-0.36 0.54 -0.78 1.04 -1.28 1.48 c-0.48 0.44 -1 0.82 -1.58 1.14 c-0.56 0.32 -1.16 0.56 -1.82 0.72 c-0.64 0.18 -1.3 0.26 -2 0.26 c-2.22 0 -4.08 -0.8 -5.64 -2.36 s-2.36 -3.42 -2.36 -5.64 c0 -2.2 0.78 -4.08 2.36 -5.64 c1.54 -1.58 3.42 -2.36 5.64 -2.36 c1.1 0 2.14 0.2 3.12 0.62 c0.96 0.42 1.82 1 2.56 1.74 l-1.92 1.88 c-1.04 -1.04 -2.28 -1.56 -3.76 -1.56 c-1.46 0 -2.72 0.5 -3.78 1.56 c-1.04 1.04 -1.54 2.3 -1.54 3.76 s0.5 2.74 1.54 3.78 s2.32 1.54 3.78 1.54 c0.8 0 1.54 -0.16 2.22 -0.46 z M25.98 17.34 l0 -2.66 l6.68 0 l-2.66 2.66 l-4.02 0 z M35.480000000000004 23.78 l2.66 -2.46 l8 0 l0 2.68 l-10.66 0 l0 -0.22 z M35.480000000000004 8 l10.66 0 l0 2.68 l-8 0 z M35.480000000000004 14.68 l2.66 0 l8 0 l0 2.66 l-8 0 l-2.66 0 l0 -2.66 z  M61.2 8 c2.22 0 4.08 0.8 5.64 2.36 c1.58 1.56 2.38 3.44 2.38 5.64 c0 2.22 -0.8 4.1 -2.38 5.64 c-1.56 1.56 -3.42 2.36 -5.64 2.36 s-4.08 -0.8 -5.64 -2.36 s-2.36 -3.42 -2.36 -5.64 c0 -2.2 0.8 -4.08 2.36 -5.64 c1.54 -1.56 3.42 -2.36 5.64 -2.36 z M61.2 10.68 c-1.46 0 -2.72 0.5 -3.78 1.56 c-1.04 1.04 -1.54 2.3 -1.54 3.76 s0.5 2.74 1.54 3.78 s2.32 1.54 3.78 1.54 s2.72 -0.5 3.76 -1.54 c1.06 -1.06 1.56 -2.32 1.56 -3.78 s-0.52 -2.72 -1.56 -3.76 s-2.3 -1.56 -3.76 -1.56 z M72.5 15.98 l2.66 0 l8 0 l0 2.7 l-8 0 l0 5.32 l-2.66 0 l0 -8.02 z M72.5 8 l10.66 0 l0 2.68 l-8 0 z  M95.16 23.36 c-0.98 -0.42 -1.82 -1 -2.56 -1.72 c-0.72 -0.74 -1.3 -1.58 -1.72 -2.56 s-0.64 -2 -0.64 -3.08 c0 -1.1 0.22 -2.14 0.64 -3.12 c0.42 -0.96 1 -1.8 1.72 -2.52 c0.74 -0.74 1.58 -1.3 2.56 -1.72 c0.96 -0.42 2 -0.64 3.1 -0.64 s2.14 0.2 3.1 0.62 s1.82 1 2.56 1.74 l-1.9 1.86 c-1.06 -1.04 -2.32 -1.54 -3.76 -1.54 c-0.74 0 -1.44 0.14 -2.08 0.4 c-0.66 0.28 -1.22 0.66 -1.7 1.16 c-0.48 0.48 -0.86 1.04 -1.14 1.68 c-0.28 0.66 -0.42 1.34 -0.42 2.08 s0.14 1.42 0.42 2.08 c0.28 0.64 0.66 1.2 1.16 1.68 c0.48 0.5 1.04 0.88 1.68 1.16 c0.66 0.26 1.34 0.4 2.08 0.4 l3.1 2.06 c-0.96 0.42 -2 0.62 -3.1 0.62 s-2.14 -0.22 -3.1 -0.64 z M116.04 16.34 c-0.62 0.9 -1.4 1.54 -2.34 1.92 l3.28 5.74 l-3.06 0 l-4.64 -8.02 l2.38 0.02 c0.72 0 1.34 -0.26 1.86 -0.78 c0.54 -0.52 0.8 -1.16 0.8 -1.9 c0 -0.72 -0.26 -1.34 -0.8 -1.86 c-0.52 -0.52 -1.14 -0.78 -1.86 -0.78 l-5.34 0 l-0.3 -0.3 l-1.38 -2.38 l7.02 0 c1.46 0 2.72 0.52 3.76 1.56 c1.04 1.06 1.56 2.3 1.56 3.76 c0 1.12 -0.3 2.12 -0.94 3.02 z M129.52 16 l-1.7 2.18 l0 -0.02 l-4.54 5.84 l-3.42 0 l6.28 -8 l-6.28 -8 l3.42 0 l4.54 5.84 l4.56 -5.84 l3.38 0 z M127.82 18.16 l0 0.02 l-4.54 5.82 z M149.38 9.56 c1.04 1.06 1.56 2.32 1.56 3.78 s-0.5 2.74 -1.56 3.78 c-1.04 1.04 -2.3 1.56 -3.76 1.56 l-5.34 0 l0 5.32 l-2.66 0 l0 -8 l2.66 0 l5.34 0 c0.72 0 1.34 -0.26 1.86 -0.78 s0.8 -1.14 0.8 -1.88 c0 -0.72 -0.26 -1.36 -0.8 -1.88 c-0.52 -0.52 -1.14 -0.78 -1.86 -0.78 l-5.34 0 l-2.66 -2.68 l8 0 c1.46 0 2.72 0.52 3.76 1.56 z M153.22 8 l8 0 l0 2.68 l-5.32 0 l0 13.32 l-2.68 0 l0 -13.32 l0 -2.68 z M171.42 8 c2.22 0 4.08 0.8 5.64 2.36 c1.58 1.56 2.38 3.44 2.38 5.64 c0 2.22 -0.8 4.1 -2.38 5.64 c-1.56 1.56 -3.42 2.36 -5.64 2.36 s-4.08 -0.8 -5.64 -2.36 s-2.36 -3.42 -2.36 -5.64 c0 -2.2 0.8 -4.08 2.36 -5.64 c1.54 -1.56 3.42 -2.36 5.64 -2.36 z M171.42 10.68 c-1.46 0 -2.72 0.5 -3.78 1.56 c-1.04 1.04 -1.54 2.3 -1.54 3.76 s0.5 2.74 1.54 3.78 s2.32 1.54 3.78 1.54 s2.72 -0.5 3.76 -1.54 c1.06 -1.06 1.56 -2.32 1.56 -3.78 s-0.52 -2.72 -1.56 -3.76 s-2.3 -1.56 -3.76 -1.56 z"></path></g></svg>